<svg xmlns="http://www.w3.org/2000/svg" xmlns:xlink="http://www.w3.org/1999/xlink" viewBox="0,0,256,256" width="48px" height="48px"><g fill-opacity="0" fill="#dddddd" fill-rule="nonzero" stroke="none" stroke-width="1" stroke-linecap="butt" stroke-linejoin="miter" stroke-miterlimit="10" stroke-dasharray="" stroke-dashoffset="0" font-family="none" font-weight="none" font-size="none" text-anchor="none" style="mix-blend-mode: normal"><path d="M0,256v-256h256v256z" id="bgRectangle"></path></g><g fill="none" fill-rule="nonzero" stroke="#dbdbdb" stroke-width="3" stroke-linecap="round" stroke-linejoin="none" stroke-miterlimit="10" stroke-dasharray="" stroke-dashoffset="0" font-family="none" font-weight="none" font-size="none" text-anchor="none" style="mix-blend-mode: normal"><g transform="scale(5.33333,5.33333)"><path d="M20.5,10.5h21" stroke-linejoin="miter"></path><path d="M20.5,37.5h21" stroke-linejoin="miter"></path><path d="M20.5,24h21" stroke-linejoin="miter"></path><path d="M6.5,8.3v-0.8c0,-0.6 0.4,-1 1,-1h6c0.6,0 1,0.4 1,1v6c0,0.6 -0.4,1 -1,1h-6c-0.6,0 -1,-0.4 -1,-1v-0.5" stroke-linejoin="round"></path><path d="M7.5,41.5c-0.6,0 -1,-0.4 -1,-1v-6c0,-0.6 0.4,-1 1,-1h6c0.6,0 1,0.4 1,1v6c0,0.6 -0.4,1 -1,1" stroke-linejoin="round"></path><path d="M14.5,26.4v0.6c0,0.6 -0.4,1 -1,1h-6c-0.6,0 -1,-0.4 -1,-1v-6c0,-0.6 0.4,-1 1,-1h6c0.6,0 1,0.4 1,1v0.7" stroke-linejoin="round"></path></g></g></svg>