<svg xmlns="http://www.w3.org/2000/svg" xmlns:xlink="http://www.w3.org/1999/xlink" viewBox="0,0,256,256" width="32px" height="32px"><g fill="#ffffff" fill-rule="nonzero" stroke="none" stroke-width="1" stroke-linecap="butt" stroke-linejoin="miter" stroke-miterlimit="10" stroke-dasharray="" stroke-dashoffset="0" font-family="none" font-weight="none" font-size="none" text-anchor="none" style="mix-blend-mode: normal"><g transform="scale(8,8)"><path d="M16,4c-6.61719,0 -12,5.38281 -12,12c0,6.61719 5.38281,12 12,12c6.61719,0 12,-5.38281 12,-12c0,-6.61719 -5.38281,-12 -12,-12zM16,6c5.53516,0 10,4.46484 10,10c0,5.53516 -4.46484,10 -10,10c-5.53516,0 -10,-4.46484 -10,-10c0,-5.53516 4.46484,-10 10,-10zM16,10c-2.19922,0 -4,1.80078 -4,4h2c0,-1.11719 0.88281,-2 2,-2c1.11719,0 2,0.88281 2,2c0,0.76563 -0.49219,1.44531 -1.21875,1.6875l-0.40625,0.125c-0.81641,0.26953 -1.375,1.05078 -1.375,1.90625v1.28125h2v-1.28125l0.40625,-0.125c1.53906,-0.51172 2.59375,-1.97266 2.59375,-3.59375c0,-2.19922 -1.80078,-4 -4,-4zM15,20v2h2v-2z"></path></g></g></svg>