<svg xmlns="http://www.w3.org/2000/svg" xmlns:xlink="http://www.w3.org/1999/xlink" viewBox="0,0,256,256" width="48px" height="48px"><g fill="#ffffff" fill-rule="nonzero" stroke="none" stroke-width="1" stroke-linecap="butt" stroke-linejoin="miter" stroke-miterlimit="10" stroke-dasharray="" stroke-dashoffset="0" font-family="none" font-weight="none" font-size="none" text-anchor="none" style="mix-blend-mode: normal"><g transform="scale(5.33333,5.33333)"><path d="M15.98438,4.98633c-0.04779,0.00114 -0.09544,0.00571 -0.14258,0.01367h-5.8418c-2.74816,0 -5,2.25184 -5,5v28c0,2.74816 2.25184,5 5,5h5.83203c0.10799,0.01785 0.21818,0.01785 0.32617,0h21.8418c2.74816,0 5,-2.25184 5,-5v-21.83203c0.01785,-0.10799 0.01785,-0.21818 0,-0.32617v-5.8418c0,-2.74816 -2.25184,-5 -5,-5h-21.83203c-0.06065,-0.01019 -0.12211,-0.01477 -0.18359,-0.01367zM10,7h5v8h-5c-0.36064,-0.0051 -0.69608,0.18438 -0.87789,0.49587c-0.18181,0.3115 -0.18181,0.69676 0,1.00825c0.18181,0.3115 0.51725,0.50097 0.87789,0.49587h5v24h-5c-1.66384,0 -3,-1.33616 -3,-3v-28c0,-1.66384 1.33616,-3 3,-3zM17,7h21c1.66384,0 3,1.33616 3,3v5h-21c-0.36064,-0.0051 -0.69608,0.18438 -0.87789,0.49587c-0.18181,0.3115 -0.18181,0.69676 0,1.00825c0.18181,0.3115 0.51725,0.50097 0.87789,0.49587h21v21c0,1.66384 -1.33616,3 -3,3h-21v-24.83203c0.01785,-0.10799 0.01785,-0.21818 0,-0.32617z"></path></g></g></svg>