<svg xmlns="http://www.w3.org/2000/svg"  viewBox="0 0 64 64" width="64px" height="64px"><linearGradient id="dlNfl3gmqJ5IoupjHX203a" x1="44.5" x2="44.5" y1="-60.837" y2="-69.01" gradientTransform="matrix(1 0 0 -1 0 -18)" gradientUnits="userSpaceOnUse" spreadMethod="reflect"><stop offset="0" stop-color="#6dc7ff"/><stop offset="1" stop-color="#e6abff"/></linearGradient><path fill="url(#dlNfl3gmqJ5IoupjHX203a)" d="M39 48.003L42 51.003 50 45.003 47 42.003z"/><linearGradient id="dlNfl3gmqJ5IoupjHX203b" x1="25" x2="25" y1="-22.337" y2="-79.515" gradientTransform="matrix(1 0 0 -1 0 -18)" gradientUnits="userSpaceOnUse" spreadMethod="reflect"><stop offset="0" stop-color="#1a6dff"/><stop offset="1" stop-color="#c822ff"/></linearGradient><path fill="url(#dlNfl3gmqJ5IoupjHX203b)" d="M25,10.003c-7.168,0-13,5.832-13,13s5.832,13,13,13s13-5.832,13-13S32.168,10.003,25,10.003z M25,34.003c-6.065,0-11-4.935-11-11s4.935-11,11-11s11,4.935,11,11S31.065,34.003,25,34.003z"/><linearGradient id="dlNfl3gmqJ5IoupjHX203c" x1="32" x2="32" y1="-22.337" y2="-79.515" gradientTransform="matrix(1 0 0 -1 0 -18)" gradientUnits="userSpaceOnUse" spreadMethod="reflect"><stop offset="0" stop-color="#1a6dff"/><stop offset="1" stop-color="#c822ff"/></linearGradient><path fill="url(#dlNfl3gmqJ5IoupjHX203c)" d="M54.768,48.557l-8.751-9.863c-0.719-0.811-1.994-0.92-2.846-0.242l-2.485,1.973l-4.124-4.993 C39.898,32.325,42,27.911,42,23.003c0-9.374-7.626-17-17-17s-17,7.626-17,17s7.626,17,17,17c3.749,0,7.206-1.234,10.02-3.297 l4.098,4.962l-2.365,1.877c-0.434,0.344-0.698,0.831-0.746,1.373c-0.047,0.539,0.127,1.061,0.49,1.47l8.752,9.864 c1.021,1.15,2.488,1.744,3.964,1.744c1.169,0,2.344-0.373,3.307-1.137l1.606-1.273c1.08-0.857,1.739-2.067,1.855-3.406 C56.098,50.857,55.666,49.57,54.768,48.557z M10,23.003c0-8.271,6.729-15,15-15s15,6.729,15,15s-6.729,15-15,15S10,31.275,10,23.003 z M48.64,44.665l-6.467,5.132l-1.476-1.656l6.471-5.135L48.64,44.665z M44.415,40.018c0.028-0.025,0.088-0.017,0.104,0.003 l1.319,1.486l-6.475,5.138l-1.367-1.533L44.415,40.018z M52.883,54.02l-1.605,1.273c-1.361,1.079-3.393,0.915-4.532-0.369 l-3.239-3.632l6.463-5.128l3.302,3.722c0.53,0.597,0.785,1.351,0.718,2.122C53.921,52.792,53.527,53.507,52.883,54.02z"/><linearGradient id="dlNfl3gmqJ5IoupjHX203d" x1="25" x2="25" y1="108.167" y2="133.833" gradientTransform="translate(0 -98)" gradientUnits="userSpaceOnUse" spreadMethod="reflect"><stop offset="0" stop-color="#6dc7ff"/><stop offset="1" stop-color="#e6abff"/></linearGradient><path fill="url(#dlNfl3gmqJ5IoupjHX203d)" d="M26,30v-2h1c1.103,0,2-0.897,2-2v-2c0-1.103-0.897-2-2-2h-4v-2h6v-2h-3v-2h-2v2h-1 c-1.103,0-2,0.897-2,2v2c0,1.103,0.897,2,2,2h4v2h-6v2h3v2H26z"/></svg>