<svg xmlns="http://www.w3.org/2000/svg"  viewBox="0 0 48 48" width="48px" height="48px"><path d="M 15.984375 4.9863281 A 1.0001 1.0001 0 0 0 15.841797 5 L 10 5 C 7.2518422 5 5 7.2518422 5 10 L 5 38 C 5 40.748158 7.2518422 43 10 43 L 15.832031 43 A 1.0001 1.0001 0 0 0 16.158203 43 L 38 43 C 40.748158 43 43 40.748158 43 38 L 43 16.167969 A 1.0001 1.0001 0 0 0 43 15.841797 L 43 10 C 43 7.2518422 40.748158 5 38 5 L 16.167969 5 A 1.0001 1.0001 0 0 0 15.984375 4.9863281 z M 10 7 L 15 7 L 15 15 L 10 15 A 1.0001 1.0001 0 1 0 10 17 L 15 17 L 15 41 L 10 41 C 8.3361578 41 7 39.663842 7 38 L 7 10 C 7 8.3361578 8.3361578 7 10 7 z M 17 7 L 38 7 C 39.663842 7 41 8.3361578 41 10 L 41 15 L 20 15 A 1.0001 1.0001 0 1 0 20 17 L 41 17 L 41 38 C 41 39.663842 39.663842 41 38 41 L 17 41 L 17 16.167969 A 1.0001 1.0001 0 0 0 17 15.841797 L 17 7 z"/></svg>