<svg xmlns="http://www.w3.org/2000/svg" xmlns:xlink="http://www.w3.org/1999/xlink" viewBox="0,0,256,256" width="48px" height="48px"><g fill="#ffffff" fill-rule="nonzero" stroke="none" stroke-width="1" stroke-linecap="butt" stroke-linejoin="miter" stroke-miterlimit="10" stroke-dasharray="" stroke-dashoffset="0" font-family="none" font-weight="none" font-size="none" text-anchor="none" style="mix-blend-mode: normal"><g transform="scale(5.33333,5.33333)"><path d="M24,2c-2.76142,0 -5,2.23858 -5,5c0,2.76142 2.23858,5 5,5c2.76142,0 5,-2.23858 5,-5c0,-2.76142 -2.23858,-5 -5,-5zM11,9c-2.46471,0 -4.5,2.03529 -4.5,4.5v12c-0.00765,0.54095 0.27656,1.04412 0.74381,1.31683c0.46725,0.27271 1.04514,0.27271 1.51238,0c0.46725,-0.27271 0.75146,-0.77588 0.74381,-1.31683v-12c0,-0.93529 0.56471,-1.5 1.5,-1.5h4.5c0.54095,0.00765 1.04412,-0.27656 1.31683,-0.74381c0.27271,-0.46725 0.27271,-1.04514 0,-1.51238c-0.27271,-0.46725 -0.77588,-0.75146 -1.31683,-0.74381zM32.5,9c-0.54095,-0.00765 -1.04412,0.27656 -1.31683,0.74381c-0.27271,0.46725 -0.27271,1.04514 0,1.51238c0.27271,0.46725 0.77588,0.75146 1.31683,0.74381h4.5c0.93529,0 1.5,0.56471 1.5,1.5v12c-0.00765,0.54095 0.27656,1.04412 0.74381,1.31683c0.46725,0.27271 1.04514,0.27271 1.51238,0c0.46725,-0.27271 0.75146,-0.77588 0.74381,-1.31683v-12c0,-2.46471 -2.03529,-4.5 -4.5,-4.5zM19.5,15c-1.9,0 -3.5,1.6 -3.5,3.5v0.5c0,2.9 3.4,5 8,5c4.6,0 8,-2.1 8,-5v-0.5c0,-1.9 -1.6,-3.5 -3.5,-3.5zM8,29c-1.933,0 -3.5,1.567 -3.5,3.5c0,1.933 1.567,3.5 3.5,3.5c1.933,0 3.5,-1.567 3.5,-3.5c0,-1.933 -1.567,-3.5 -3.5,-3.5zM24,29c-1.933,0 -3.5,1.567 -3.5,3.5c0,1.933 1.567,3.5 3.5,3.5c1.933,0 3.5,-1.567 3.5,-3.5c0,-1.933 -1.567,-3.5 -3.5,-3.5zM40,29c-1.933,0 -3.5,1.567 -3.5,3.5c0,1.933 1.567,3.5 3.5,3.5c1.933,0 3.5,-1.567 3.5,-3.5c0,-1.933 -1.567,-3.5 -3.5,-3.5zM3.5,38c-0.8,0 -1.5,0.7 -1.5,1.5v1c0,1.9 2.7,3.5 6,3.5c3.3,0 6,-1.6 6,-3.5v-1c0,-0.8 -0.7,-1.5 -1.5,-1.5zM19.5,38c-0.8,0 -1.5,0.7 -1.5,1.5v1c0,1.9 2.7,3.5 6,3.5c3.3,0 6,-1.6 6,-3.5v-1c0,-0.8 -0.7,-1.5 -1.5,-1.5zM35.5,38c-0.8,0 -1.5,0.7 -1.5,1.5v1c0,1.9 2.7,3.5 6,3.5c3.3,0 6,-1.6 6,-3.5v-1c0,-0.8 -0.7,-1.5 -1.5,-1.5z"></path></g></g></svg>