<svg xmlns="http://www.w3.org/2000/svg" xmlns:xlink="http://www.w3.org/1999/xlink" viewBox="0,0,256,256" width="24px" height="24px"><g fill="#ffffff" fill-rule="nonzero" stroke="none" stroke-width="1" stroke-linecap="butt" stroke-linejoin="miter" stroke-miterlimit="10" stroke-dasharray="" stroke-dashoffset="0" font-family="none" font-weight="none" font-size="none" text-anchor="none" style="mix-blend-mode: normal"><g transform="translate(221.33333,-33.6) rotate(90) scale(10.66667,10.66667)"><path d="M3.8,16l-2.6,-2.6c-0.7,-0.7 -0.7,-1.9 0,-2.6l2.6,-2.8c0.7,-0.7 1.9,-0.7 2.6,0l2.6,2.6c0.7,0.7 0.7,1.9 0,2.6l-2.5,2.8c-0.7,0.7 -1.9,0.7 -2.7,0z" opacity="0.35"></path><path d="M10.7,9.5l-2.7,-2.7c-0.7,-0.7 -0.7,-1.9 0,-2.6l2.6,-2.6c0.7,-0.7 1.9,-0.7 2.6,0l2.8,2.6c0.7,0.7 0.7,1.9 0,2.6l-2.6,2.6c-0.8,0.8 -2,0.8 -2.7,0.1z"></path><path d="M17.5,16l-2.6,-2.6c-0.7,-0.7 -0.7,-1.9 0,-2.6l2.6,-2.8c0.7,-0.7 1.9,-0.7 2.6,0l2.6,2.6c0.7,0.7 0.7,1.9 0,2.6l-2.5,2.8c-0.8,0.7 -2,0.7 -2.7,0z" opacity="0.35"></path></g></g></svg>