<svg xmlns="http://www.w3.org/2000/svg" viewBox="0 0 3000 2550" width="3000" height="2550"><g transform="translate(1465.5 355.5) rotate(0.0 675.0 804.0) scale(1.4992686900500756 1.4998614866724063)"><svg width="900.439" height="1072.099" viewBox="0 0 900.439 1072.099"><g fill="#fff4e2"><path d="M474.441 227.603c231.13 0 418.498 187.368 418.498 418.498s-187.368 418.498-418.498 418.498S55.943 877.231 55.943 646.101h418.498z"/><path d="M474.441 1072.099c-57.506 0-113.296-11.265-165.82-33.48-50.729-21.456-96.286-52.171-135.406-91.292-39.121-39.12-69.835-84.677-91.292-135.405-22.215-52.524-33.48-108.314-33.48-165.82a7.5 7.5 0 0 1 7.5-7.5h410.999V227.603a7.5 7.5 0 0 1 7.5-7.5c57.506 0 113.296 11.265 165.82 33.48 50.729 21.456 96.286 52.171 135.406 91.291s69.835 84.678 91.292 135.406c22.216 52.524 33.48 108.314 33.48 165.82s-11.264 113.296-33.48 165.82c-21.457 50.728-52.171 96.285-91.292 135.405-39.121 39.121-84.678 69.836-135.406 91.292-52.524 22.216-108.314 33.48-165.82 33.48zM63.51 653.601c4.012 223.181 186.81 403.498 410.931 403.498 226.625 0 410.998-184.373 410.998-410.998 0-224.121-180.317-406.919-403.498-410.931v410.931a7.5 7.5 0 0 1-7.5 7.5z"/><path d="M7.5 425.998C7.5 194.868 194.868 7.5 425.998 7.5v418.498z"/><path d="M425.998 433.499H7.5a7.5 7.5 0 0 1-7.5-7.5c0-57.506 11.264-113.296 33.48-165.821 21.457-50.729 52.171-96.285 91.292-135.406 39.12-39.12 84.678-69.835 135.406-91.291C312.702 11.265 368.492 0 425.998 0a7.5 7.5 0 0 1 7.5 7.5v418.498a7.5 7.5 0 0 1-7.5 7.5zm-410.931-15h403.431V15.068C197.81 19.035 19.034 197.81 15.068 418.499z"/></g></svg></g><g transform="translate(586.5 1039.5) rotate(0.0 1060.5 529.5) scale(1.491602090352689 1.4928760630926923)"><svg width="1421.961" height="709.369" viewBox="0 0 1421.961 709.369"><g fill="#f4bf42"><path d="m1041.861 701.845-260.264.024-385.88-374.098 260.08-.187 386.063 374.261z"/><path d="M781.598 709.369a7.503 7.503 0 0 1-5.221-2.115l-385.88-374.098a7.501 7.501 0 0 1 5.215-12.885l260.081-.187h.005a7.5 7.5 0 0 1 5.22 2.115l386.063 374.261a7.5 7.5 0 0 1-5.22 12.885l-260.264.023zM414.215 335.258l370.421 359.111 238.716-.021-370.589-359.261-238.547.171z"/><path d="M655.798 327.584 267.781 701.837H7.5l388.218-374.066z"/><path d="M267.781 709.337H7.5a7.498 7.498 0 0 1-5.204-12.9l388.218-374.065a7.495 7.495 0 0 1 5.198-2.1l260.08-.188h.005a7.5 7.5 0 0 1 5.207 12.898L272.987 707.235a7.503 7.503 0 0 1-5.207 2.102zm-241.688-15h238.66l372.452-359.239-238.459.172L26.093 694.337zm1305.175-466.312-289.407 473.821-260.264.024 444.937-542.295 104.734 68.451z"/><path d="M781.598 709.369a7.499 7.499 0 0 1-5.799-12.257l444.937-542.295a7.501 7.501 0 0 1 9.901-1.521l104.735 68.451a7.5 7.5 0 0 1 2.297 10.188l-289.407 473.82a7.5 7.5 0 0 1-6.4 3.591zm446.466-539.835L797.453 694.368l240.2-.022 283.422-464.021-93.012-60.79z"/><path d="m1391.002 7.5 23.459 323.651-327.517-211.238z"/><path d="M1414.462 338.652c-1.416 0-2.829-.4-4.065-1.197L1082.88 126.217a7.5 7.5 0 0 1 1.464-13.337L1388.401.465a7.496 7.496 0 0 1 6.662.729 7.505 7.505 0 0 1 3.42 5.764l23.459 323.652a7.497 7.497 0 0 1-7.481 8.042zM1103.62 121.745l302.274 194.957-21.651-298.707z"/></g></svg></g><g transform="translate(201.0 703.5) rotate(0.0 570.75 504.75) scale(1.4996374069870098 1.4987773718022)"><svg width="761.184" height="673.549" viewBox="0 0 761.184 673.549"><rect fill="#f7e5c6" height="673.549" rx="50" width="761.184"/><g fill="#fff4e2"><circle cx="546.057" cy="67.43" r="24.622"/><circle cx="617.34" cy="67.43" r="24.622"/><circle cx="688.622" cy="67.43" r="24.622"/></g></svg></g><g transform="translate(462.0 921.0) rotate(0.0 705.75 593.25) scale(1.4987942749562786 1.4996682149966822)"><svg width="941.757" height="791.175" viewBox="0 0 941.757 791.175"><rect fill="#5550bc" height="623.398" rx="50" width="926.757" x="7.5" y="7.5"/><path d="M884.257 638.398H57.5c-31.705 0-57.5-25.794-57.5-57.5V57.5C0 25.794 25.795 0 57.5 0h826.757c31.706 0 57.5 25.794 57.5 57.5v523.397c0 31.706-25.794 57.5-57.5 57.5zM57.5 15C34.065 15 15 34.065 15 57.5v523.397c0 23.435 19.065 42.5 42.5 42.5h826.757c23.435 0 42.5-19.065 42.5-42.5V57.5c0-23.435-19.065-42.5-42.5-42.5z" fill="#430c61"/><path d="M383.774 630.898h174.208v101.931H383.774z" fill="#948781"/><path d="M557.983 740.328H383.775a7.5 7.5 0 0 1-7.5-7.5V630.897a7.5 7.5 0 0 1 7.5-7.5h174.208a7.5 7.5 0 0 1 7.5 7.5v101.931a7.5 7.5 0 0 1-7.5 7.5zm-166.708-15h159.208v-86.931H391.275z" fill="#430c61"/><rect fill="#948781" height="50.847" rx="25.423" width="278.224" x="331.766" y="732.828"/><path d="M584.567 791.175H357.19c-18.154 0-32.923-14.77-32.923-32.923s14.769-32.924 32.923-32.924h227.377c18.154 0 32.924 14.77 32.924 32.924s-14.77 32.923-32.924 32.923zM357.19 740.328c-9.883 0-17.923 8.041-17.923 17.924s8.04 17.923 17.923 17.923h227.377c9.883 0 17.924-8.04 17.924-17.923s-8.041-17.924-17.924-17.924z" fill="#430c61"/><circle cx="77.981" cy="77.981" fill="#ff8d61" r="21.535"/><circle cx="143.641" cy="77.981" fill="#f4bf42" r="21.535"/><circle cx="209.301" cy="77.981" fill="#a1d7f1" r="21.535"/></svg></g><g transform="translate(672.0 1242.0) rotate(0.0 488.25 123.0) scale(1.5347209998239746 1.5292230800790718)"><svg width="636.272" height="160.866" viewBox="0 0 636.272 160.866"><rect fill="#fff4e2" height="145.866" rx="72.933" width="621.272" x="7.5" y="7.5"/><path d="M555.84 160.865H80.433C36.082 160.865 0 124.783 0 80.433S36.082 0 80.433 0H555.84c44.351 0 80.433 36.082 80.433 80.433s-36.082 80.433-80.433 80.433zM80.433 15C44.353 15 15 44.353 15 80.433s29.353 65.433 65.433 65.433H555.84c36.08 0 65.433-29.353 65.433-65.433S591.92 15 555.84 15z" fill="#430c61"/><path d="M555.84 113.366h-74.046" fill="#fff4e2"/><g fill="#430c61"><path d="M555.842 120.865c-.49 0-.98-.05-1.47-.149-.48-.091-.95-.24-1.4-.42-.45-.19-.89-.421-1.29-.69-.42-.28-.8-.59-1.14-.94-1.4-1.39-2.2-3.33-2.2-5.3s.8-3.91 2.2-5.3a7.51 7.51 0 0 1 5.3-2.2 7.51 7.51 0 0 1 7.5 7.5c0 1.98-.8 3.91-2.2 5.3-.34.351-.73.66-1.14.94-.41.27-.84.5-1.29.69-.46.18-.93.329-1.41.42-.48.1-.97.149-1.46.149zm-44.52-7.5c0-4.14 3.35-7.5 7.49-7.5 4.15 0 7.51 3.36 7.51 7.5 0 4.141-3.36 7.5-7.51 7.5-4.14 0-7.49-3.359-7.49-7.5zm-29.53 7.5c-.49 0-.98-.05-1.46-.149-.48-.091-.96-.24-1.41-.42a7.403 7.403 0 0 1-2.43-1.63c-.35-.34-.66-.729-.94-1.14-.27-.4-.5-.84-.68-1.29-.19-.46-.34-.93-.43-1.41-.1-.479-.15-.97-.15-1.46 0-1.979.8-3.91 2.2-5.3.34-.35.73-.66 1.14-.93.4-.28.84-.511 1.29-.7.45-.18.93-.33 1.41-.42 2.43-.49 5.02.31 6.77 2.05a7.543 7.543 0 0 1 2.19 5.3c0 .49-.05.98-.15 1.46-.09.48-.24.95-.42 1.41a7.597 7.597 0 0 1-1.62 2.43 7.55 7.55 0 0 1-5.31 2.2z"/></g></svg></g><g transform="translate(225.0 1233.0) rotate(0.0 339.75 390.0) scale(1.4979894534487928 1.499054442582371)"><svg width="453.608" height="520.328" viewBox="0 0 453.608 520.328"><g><g><circle cx="269.34" cy="184.266" r="138.066" style="fill:#5550bc"/><path d="M269.34 329.833c-80.266 0-145.566-65.301-145.566-145.566S189.075 38.7 269.34 38.7s145.566 65.301 145.566 145.566-65.301 145.566-145.566 145.566Zm0-276.133c-71.995 0-130.566 58.572-130.566 130.566s58.572 130.566 130.566 130.566 130.566-58.572 130.566-130.566S341.334 53.7 269.34 53.7Z" style="fill:#430c61"/></g><g><path d="M406.257 202.139a139.42 139.42 0 0 0 1.149-17.873c0-76.252-61.814-138.066-138.066-138.066-14.473 0-28.424 2.232-41.532 6.362-12.215 15.703-19.493 35.436-19.493 56.871 0 51.201 41.506 92.707 92.707 92.707h105.236Z" style="fill:#fff4e2"/><path d="M406.257 209.639H301.021c-55.254 0-100.207-44.952-100.207-100.206 0-22.496 7.287-43.755 21.073-61.477a7.497 7.497 0 0 1 3.667-2.549c14.131-4.451 28.862-6.708 43.785-6.708 80.266 0 145.566 65.301 145.566 145.566 0 6.28-.407 12.617-1.211 18.835a7.5 7.5 0 0 1-7.438 6.538ZM232.321 59.026c-10.806 14.682-16.506 32.06-16.506 50.406 0 46.983 38.223 85.207 85.207 85.207h98.477c.272-3.452.409-6.922.409-10.373 0-71.994-58.572-130.566-130.566-130.566a130.66 130.66 0 0 0-37.02 5.326Z" style="fill:#430c61"/></g></g><g><g><path d="M43.318 512.691a32.716 32.716 0 0 1-23.203-6.828c-14.286-11.166-16.816-31.8-5.65-46.087l137.214-175.453 51.737 40.437L66.202 500.213c-5.808 7.431-14.178 11.681-22.884 12.478Z" style="fill:#a1d7f1"/><path d="M40.292 520.33c-8.969 0-17.656-2.977-24.796-8.558-17.521-13.694-20.635-39.092-6.941-56.614l137.216-175.455a7.5 7.5 0 0 1 10.526-1.289l51.737 40.437a7.5 7.5 0 0 1 1.29 10.529L72.11 504.833c-6.823 8.729-17.069 14.316-28.108 15.327-1.239.113-2.477.17-3.709.17Zm3.026-7.639h.01-.01Zm109.65-217.842L20.373 464.396c-8.6 11.004-6.644 26.956 4.361 35.558a25.223 25.223 0 0 0 17.901 5.269c7.038-.645 13.309-4.063 17.658-9.628l132.594-169.546-39.918-31.199Z" style="fill:#430c61"/></g><g><path d="M269.34 7.5c-97.626 0-176.766 79.141-176.766 176.766s79.141 176.768 176.766 176.768 176.768-79.142 176.768-176.768S366.966 7.5 269.34 7.5Zm0 314.833c-76.252 0-138.066-61.814-138.066-138.066S193.088 46.2 269.34 46.2s138.066 61.815 138.066 138.066-61.814 138.066-138.066 138.066Z" style="fill:#a1d7f1"/><path d="M269.34 368.534c-101.605 0-184.266-82.662-184.266-184.268S167.736 0 269.34 0s184.268 82.662 184.268 184.267-82.662 184.268-184.268 184.268Zm0-353.534c-93.334 0-169.266 75.933-169.266 169.267s75.933 169.268 169.266 169.268 169.268-75.934 169.268-169.268S362.675 15 269.34 15Zm0 314.833c-80.266 0-145.566-65.301-145.566-145.566S189.075 38.7 269.34 38.7s145.566 65.301 145.566 145.566-65.301 145.566-145.566 145.566Zm0-276.133c-71.995 0-130.566 58.572-130.566 130.566s58.572 130.566 130.566 130.566 130.566-58.572 130.566-130.566S341.334 53.7 269.34 53.7Z" style="fill:#430c61"/></g></g></svg></g><g transform="translate(319.5 778.5) rotate(0.0 339.75 114.75) scale(1.51893810690463 1.5122661588439568)"><svg width="447.352" height="151.759" viewBox="0 0 447.352 151.759"><g fill="#430c61"><path d="M396.125 151.759c-28.247 0-51.227-22.98-51.227-51.228s22.98-51.227 51.227-51.227 51.227 22.98 51.227 51.227-22.98 51.228-51.227 51.228zm0-87.454c-19.976 0-36.227 16.251-36.227 36.227s16.251 36.228 36.227 36.228 36.227-16.252 36.227-36.228-16.251-36.227-36.227-36.227z"/><path d="M363.918 78.455a7.474 7.474 0 0 1-5-1.912L292.07 16.69 7.455 15a7.501 7.501 0 0 1 .044-15h.045L295 1.707a7.5 7.5 0 0 1 4.958 1.912l68.965 61.748a7.5 7.5 0 0 1-5.006 13.088z"/></g></svg></g><g transform="translate(1453.5 333.0) rotate(0.0 222.75 222.75) scale(1.4984712565968052 1.4984762968294865)"><svg width="297.303" height="297.302" viewBox="0 0 297.303 297.302"><path d="M284.924 207.941c-32.745 75.262-120.302 109.728-195.564 76.983C14.099 252.179-20.368 164.622 12.377 89.36c8.256-18.976 30.333-27.667 49.309-19.41 18.976 8.256 27.667 30.333 19.41 49.309-16.233 37.309.853 80.714 38.163 96.946 37.309 16.233 80.714-.853 96.946-38.163z" fill="#ff8d61"/><path d="M207.942 12.376c74.186 32.247 109.092 118.156 77.997 193.177-7.924 19.117-29.845 28.192-48.963 20.268-19.117-7.924-28.192-29.845-20.268-48.963 15.579-37.587-2.262-80.686-39.849-96.265l31.082-68.217z" fill="#a1d7f1"/><path d="M207.941 12.377C132.68-20.368 45.122 14.099 12.378 89.36l68.719 29.898c16.233-37.309 59.637-54.395 96.946-38.163 18.976 8.257 41.053-.434 49.308-19.41 8.256-18.976-.434-41.052-19.41-49.308z" fill="#f4bf42"/><path d="M74.976 148.651a73.394 73.394 0 0 1 6.121-29.392c8.256-18.976-.434-41.053-19.41-49.309-18.977-8.256-41.053.434-49.309 19.41C3.966 108.692 0 128.834.011 148.651z" fill="#ff8d61"/></svg></g><g transform="translate(427.5 514.5) rotate(0.0 117.75 117.75) scale(1.4756008922529387 1.4756008922529387)"><svg width="159.596" height="159.596" viewBox="0 0 159.596 159.596"><g fill="#430c61"><path d="M13.691 153.406a7.5 7.5 0 0 1-5.303-12.803L140.602 8.387a7.501 7.501 0 0 1 10.606 10.607L18.995 151.21a7.477 7.477 0 0 1-5.303 2.196zm20.158-85.708C15.184 67.698 0 52.513 0 33.849S15.184 0 33.849 0s33.849 15.185 33.849 33.85-15.185 33.849-33.849 33.849zm0-52.698C23.455 15 15 23.456 15 33.85s8.456 18.849 18.849 18.849 18.849-8.455 18.849-18.849S44.242 15 33.849 15zm91.898 144.596c-18.665 0-33.849-15.185-33.849-33.849s15.185-33.85 33.849-33.85 33.849 15.185 33.849 33.85-15.185 33.849-33.849 33.849zm0-52.698c-10.394 0-18.849 8.456-18.849 18.85s8.456 18.849 18.849 18.849 18.849-8.455 18.849-18.849-8.456-18.85-18.849-18.85z"/></g></svg></g><g transform="translate(1618.5 436.5) rotate(0.0 361.5 361.5) scale(1.498408329741022 1.498408329741022)"><svg width="482.512" height="482.512" viewBox="0 0 482.512 482.512"><path d="M267.692 7.5c114.5 0 207.321 92.821 207.321 207.321H267.692z" fill="#ff8d61"/><path d="M475.012 222.321H267.691a7.5 7.5 0 0 1-7.5-7.5V7.5a7.502 7.502 0 0 1 7.501-7.5c57.38 0 111.326 22.345 151.901 62.92 40.574 40.574 62.919 94.521 62.919 151.901a7.5 7.5 0 0 1-7.5 7.5zm-199.821-15h192.182c-3.862-104.238-87.944-188.32-192.182-192.182z" fill="#430c61"/><path d="M422.141 267.692c0 114.5-92.821 207.321-207.321 207.321S7.5 382.192 7.5 267.692 100.321 60.371 214.821 60.371v207.321h207.321z" fill="#ff8d61"/><path d="M214.821 482.512c-57.381 0-111.327-22.345-151.901-62.919C22.345 379.018 0 325.072 0 267.691S22.345 156.364 62.919 115.79s94.52-62.92 151.901-62.92a7.5 7.5 0 0 1 7.5 7.5v199.821h199.821a7.5 7.5 0 0 1 7.5 7.5c0 57.381-22.345 111.327-62.919 151.901s-94.521 62.919-151.901 62.919zm-7.5-414.503C100.597 71.963 15 160.018 15 267.691c0 110.182 89.639 199.821 199.82 199.821 107.673 0 195.729-85.597 199.682-192.321H214.82a7.5 7.5 0 0 1-7.5-7.5V68.01z" fill="#430c61"/></svg></g><g transform="translate(300.0 2082.0) rotate(0.0 1128.0 70.5) scale(1.4969086447801283 1.496370505582205)"><svg width="1507.106" height="94.228" viewBox="0 0 1507.106 94.228"><rect fill="#f7e5c6" height="79.228" rx="39.614" width="1492.106" x="7.5" y="7.5"/><path d="M1459.992 94.228H47.114C21.135 94.228 0 73.092 0 47.114S21.135 0 47.114 0h1412.878c25.979 0 47.114 21.136 47.114 47.114s-21.135 47.114-47.114 47.114zM47.114 15C29.406 15 15 29.406 15 47.114s14.406 32.114 32.114 32.114h1412.878c17.708 0 32.114-14.406 32.114-32.114S1477.7 15 1459.992 15z" fill="#430c61"/></svg></g></svg>