<svg xmlns="http://www.w3.org/2000/svg" xmlns:xlink="http://www.w3.org/1999/xlink" viewBox="0,0,256,256" width="48px" height="48px"><g fill-opacity="0" fill="#dddddd" fill-rule="nonzero" stroke="none" stroke-width="1" stroke-linecap="butt" stroke-linejoin="miter" stroke-miterlimit="10" stroke-dasharray="" stroke-dashoffset="0" font-family="none" font-weight="none" font-size="none" text-anchor="none" style="mix-blend-mode: normal"><path d="M0,256v-256h256v256z" id="bgRectangle"></path></g><g fill="#dbdbdb" fill-rule="nonzero" stroke="none" stroke-width="1" stroke-linecap="butt" stroke-linejoin="miter" stroke-miterlimit="10" stroke-dasharray="" stroke-dashoffset="0" font-family="none" font-weight="none" font-size="none" text-anchor="none" style="mix-blend-mode: normal"><g transform="scale(5.33333,5.33333)"><path d="M24,4c-4.71254,0 -9.061,1.63682 -12.48047,4.37109c-0.4224,0.33339 -0.63386,0.86749 -0.55419,1.39967c0.07968,0.53218 0.4383,0.98093 0.93981,1.17599c0.50152,0.19507 1.06909,0.10657 1.48742,-0.23191c2.90853,-2.32572 6.58796,-3.71484 10.60742,-3.71484c9.40629,0 17,7.59371 17,17c0,3.51333 -1.06106,6.76306 -2.88086,9.4707c-0.46221,0.68766 -0.27946,1.61982 0.4082,2.08203c0.68766,0.46221 1.61982,0.27946 2.08203,-0.4082c2.1402,-3.18436 3.39063,-7.02586 3.39063,-11.14453c0,-11.02771 -8.97229,-20 -20,-20zM8.25,12.86914c-0.54756,-0.01762 -1.06118,0.26465 -1.33984,0.73633c-1.84525,3.02893 -2.91016,6.59407 -2.91016,10.39453c0,11.02771 8.97229,20 20,20c3.69896,0 7.17517,-1.00795 10.15039,-2.76367c0.46167,-0.27244 0.7429,-0.77051 0.73774,-1.30655c-0.00516,-0.53604 -0.29593,-1.02859 -0.76276,-1.2921c-0.46683,-0.2635 -1.03878,-0.25791 -1.50037,0.01466c-2.52878,1.49227 -5.46996,2.34766 -8.625,2.34766c-9.40629,0 -17,-7.59371 -17,-17c0,-3.24153 0.90391,-6.25892 2.47266,-8.83398c0.28562,-0.45506 0.30607,-1.02813 0.05361,-1.50239c-0.25246,-0.47426 -0.73927,-0.77731 -1.27627,-0.79448zM24.5,17.92383c-0.64336,-0.00006 -1.28589,0.24097 -1.76758,0.72266l-7.29297,7.29297c-0.39185,0.37623 -0.54969,0.9349 -0.41265,1.46055c0.13704,0.52565 0.54754,0.93616 1.07319,1.07319c0.52565,0.13704 1.08432,-0.0208 1.46055,-0.41265l6.93945,-6.93945l6.93945,6.93945c0.37623,0.39185 0.9349,0.54969 1.46055,0.41265c0.52565,-0.13704 0.93616,-0.54754 1.07319,-1.07319c0.13704,-0.52565 -0.0208,-1.08432 -0.41265,-1.46055l-7.29102,-7.29102l-0.00195,-0.00195c-0.48129,-0.48146 -1.12508,-0.72259 -1.76758,-0.72266z"></path></g></g></svg>