<svg xmlns="http://www.w3.org/2000/svg" xmlns:xlink="http://www.w3.org/1999/xlink" viewBox="0,0,256,256" width="48px" height="48px"><g fill="#ffffff" fill-rule="nonzero" stroke="none" stroke-width="1" stroke-linecap="butt" stroke-linejoin="miter" stroke-miterlimit="10" stroke-dasharray="" stroke-dashoffset="0" font-family="none" font-weight="none" font-size="none" text-anchor="none" style="mix-blend-mode: normal"><g transform="scale(5.33333,5.33333)"><path d="M24,4.03516c-1.19637,0 -2.39395,0.3732 -3.40039,1.12109l-4.625,3.4375c-0.43834,0.31663 -0.67236,0.84466 -0.61252,1.38208c0.05984,0.53742 0.40427,1.00104 0.90151,1.2135c0.49725,0.21246 1.07036,0.14087 1.50007,-0.18737l4.625,-3.4375c0.00065,0 0.0013,0 0.00195,0c0.96113,-0.71422 2.25762,-0.71422 3.21875,0l11.35742,8.43555h-1.75391c-0.54095,-0.00765 -1.04412,0.27656 -1.31683,0.74381c-0.27271,0.46725 -0.27271,1.04514 0,1.51238c0.27271,0.46725 0.77588,0.75146 1.31683,0.74381h1.75586v15h-4.23437v-10c0.00582,-0.40562 -0.15288,-0.7963 -0.43991,-1.08296c-0.28703,-0.28666 -0.67792,-0.44486 -1.08353,-0.43852c-0.82766,0.01293 -1.48844,0.69381 -1.47656,1.52148v10h-4.23437v-12c0.00582,-0.40562 -0.15288,-0.7963 -0.43991,-1.08296c-0.28703,-0.28666 -0.67792,-0.44486 -1.08353,-0.43852c-0.82766,0.01293 -1.48843,0.69381 -1.47656,1.52148v12h-4.23437v-10.61719c0.00581,-0.40527 -0.15263,-0.79565 -0.43923,-1.08225c-0.2866,-0.2866 -0.67698,-0.44504 -1.08225,-0.43923c-0.39783,0.0057 -0.77709,0.1692 -1.05437,0.45453c-0.27728,0.28533 -0.42985,0.66913 -0.42415,1.06695v10.61719h-4.23437v-12c0.00581,-0.40527 -0.15263,-0.79565 -0.43923,-1.08225c-0.2866,-0.2866 -0.67698,-0.44504 -1.08225,-0.43923c-0.39782,0.0057 -0.77709,0.1692 -1.05437,0.45453c-0.27728,0.28533 -0.42985,0.66913 -0.42415,1.06695v12.14648c-1.1953,0.3447 -2.15981,1.30509 -2.45312,2.55859l-0.75195,3.22656c-0.00065,0.00065 -0.0013,0.0013 -0.00195,0.00195c-0.35725,1.53417 0.85987,3.06641 2.43555,3.06641h25.01758c0.54095,0.00765 1.04412,-0.27656 1.31683,-0.74381c0.27271,-0.46725 0.27271,-1.04514 0,-1.51238c-0.27271,-0.46725 -0.77588,-0.75146 -1.31683,-0.74381h-24.38867l0.61133,-2.61133c0.0553,-0.23631 0.24645,-0.38867 0.48828,-0.38867h0.29688c0.16103,0.02645 0.3253,0.02645 0.48633,0h6.74805c0.16103,0.02645 0.3253,0.02645 0.48633,0h6.74805c0.16103,0.02645 0.3253,0.02645 0.48633,0h6.74805c0.16103,0.02645 0.3253,0.02645 0.48633,0h6.74805c0.16103,0.02645 0.3253,0.02645 0.48633,0h0.30469c0.24009,0 0.43131,0.15186 0.48633,0.38672l0.61133,2.61328h-3.28125c-0.54095,-0.00765 -1.04412,0.27656 -1.31683,0.74381c-0.27271,0.46725 -0.27271,1.04514 0,1.51238c0.27271,0.46725 0.77588,0.75146 1.31683,0.74381h3.91016c1.57568,0 2.7921,-1.53469 2.43555,-3.06836c-0.00065,0 -0.0013,0 -0.00195,0l-0.75195,-3.22656c0,-0.00065 0,-0.0013 0,-0.00195c-0.29365,-1.25366 -1.25762,-2.21278 -2.45312,-2.55664v-15.20117c0.83311,-0.07637 1.56453,-0.64796 1.79883,-1.35547c0.25032,-0.75588 0.0004,-1.76061 -0.72656,-2.30078l-13.64258,-10.13281c-1.00644,-0.74789 -2.20207,-1.12109 -3.39844,-1.12109zM24,10c-1.10457,0 -2,0.89543 -2,2c0,1.10457 0.89543,2 2,2c1.10457,0 2,-0.89543 2,-2c0,-1.10457 -0.89543,-2 -2,-2zM12.66602,11.4375c-0.33836,-0.00582 -0.66875,0.10293 -0.9375,0.30859l-4.76953,3.54297c0,0.00065 0,0.0013 0,0.00195c-0.72617,0.54079 -0.97633,1.54131 -0.72656,2.29687c0.24977,0.75556 1.04946,1.41211 1.95508,1.41211h22.42969c0.54095,0.00765 1.04412,-0.27656 1.31683,-0.74381c0.27271,-0.46725 0.27271,-1.04514 0,-1.51238c-0.27271,-0.46725 -0.77588,-0.75146 -1.31683,-0.74381h-19.58398l2.48438,-1.8457c0.52415,-0.37789 0.74743,-1.04896 0.55416,-1.66556c-0.19327,-0.61659 -0.75965,-1.04015 -1.40572,-1.05124z"></path></g></g></svg>