<svg xmlns="http://www.w3.org/2000/svg" xmlns:xlink="http://www.w3.org/1999/xlink" viewBox="0,0,256,256" width="48px" height="48px"><g fill="#ffffff" fill-rule="nonzero" stroke="none" stroke-width="1" stroke-linecap="butt" stroke-linejoin="miter" stroke-miterlimit="10" stroke-dasharray="" stroke-dashoffset="0" font-family="none" font-weight="none" font-size="none" text-anchor="none" style="mix-blend-mode: normal"><g transform="scale(5.33333,5.33333)"><path d="M20.5,6c-6.545,0 -12.10091,4.35171 -13.89258,10.33398c-0.15396,0.5136 -0.0222,1.07032 0.34566,1.46042c0.36785,0.3901 0.91589,0.55428 1.43764,0.4307c0.52175,-0.12358 0.93791,-0.51615 1.09171,-1.0298c1.41833,-4.73572 5.80058,-8.19531 11.01758,-8.19531c6.36942,0 11.5,5.13059 11.5,11.5c-0.00765,0.54095 0.27656,1.04412 0.74381,1.31683c0.46725,0.27271 1.04514,0.27271 1.51238,0c0.46725,-0.27271 0.75146,-0.77588 0.74381,-1.31683c0,-7.99058 -6.50942,-14.5 -14.5,-14.5zM20.48047,11.93164c-0.68959,0.01078 -1.24018,0.57797 -1.23047,1.26758v1.00391c-1.74715,0.3623 -3.09961,1.84833 -3.09961,3.69727c0,2.05476 1.68294,3.84961 3.84961,3.84961h2c0.68571,0 1.34961,0.6639 1.34961,1.34961c0,0.74524 -0.51628,1.34961 -1.34961,1.34961h-2.80078c-0.64545,0 -1.05669,-0.3053 -1.25781,-0.75781c-0.17171,-0.42289 -0.56024,-0.71859 -1.01359,-0.77142c-0.45335,-0.05283 -0.89946,0.14561 -1.16381,0.51769c-0.26434,0.37208 -0.3049,0.85864 -0.10581,1.26935c0.59888,1.34748 1.98647,2.24219 3.54102,2.24219h0.05078v0.85156c-0.00638,0.45079 0.23047,0.8701 0.61984,1.09736c0.38937,0.22726 0.87095,0.22726 1.26032,0c0.38937,-0.22726 0.62622,-0.64656 0.61984,-1.09736v-0.85156h0.25c2.16667,0 3.84961,-1.79485 3.84961,-3.84961c0,-2.11429 -1.73532,-3.84961 -3.84961,-3.84961h-2c-0.83333,0 -1.34961,-0.60437 -1.34961,-1.34961c0,-0.68571 0.6639,-1.34961 1.34961,-1.34961h1.5c0.5,0 1.00136,0.30596 1.30664,0.85547c0.21067,0.40183 0.62252,0.65798 1.07609,0.66927c0.45357,0.01129 0.87765,-0.22406 1.10805,-0.61492c0.2304,-0.39086 0.23093,-0.87587 0.00141,-1.26724c-0.65229,-1.17413 -1.85835,-1.96789 -3.24219,-2.06836v-0.92578c0.00476,-0.33796 -0.12753,-0.66344 -0.36671,-0.90226c-0.23918,-0.23881 -0.56487,-0.3706 -0.90282,-0.36532zM8.46875,23.96484c-0.50274,0.00454 -0.96978,0.26063 -1.24394,0.68207c-0.27415,0.42144 -0.31896,0.95219 -0.11935,1.41363c2.18303,5.25223 7.36934,8.93945 13.39453,8.93945c3.45524,0 6.63659,-1.22294 9.13086,-3.24805l9.80859,9.80859c0.37623,0.39185 0.9349,0.54969 1.46055,0.41265c0.52565,-0.13704 0.93616,-0.54754 1.07319,-1.07319c0.13704,-0.52565 -0.0208,-1.08432 -0.41265,-1.46055l-10.80078,-10.80078c-0.28281,-0.29018 -0.67097,-0.45362 -1.07617,-0.45312c-0.46698,0.00138 -0.90669,0.22015 -1.18945,0.5918c-0.04007,0.03123 -0.07853,0.06448 -0.11523,0.09961c-2.06027,1.93809 -4.82205,3.12305 -7.87891,3.12305c-4.80281,0 -8.89603,-2.93007 -10.625,-7.08984c-0.22888,-0.57501 -0.78738,-0.95045 -1.40625,-0.94531z"></path></g></g></svg>