<svg xmlns="http://www.w3.org/2000/svg" xmlns:xlink="http://www.w3.org/1999/xlink" viewBox="0,0,256,256" width="48px" height="48px"><g fill="#dbdbdb" fill-rule="nonzero" stroke="none" stroke-width="1" stroke-linecap="butt" stroke-linejoin="miter" stroke-miterlimit="10" stroke-dasharray="" stroke-dashoffset="0" font-family="none" font-weight="none" font-size="none" text-anchor="none" style="mix-blend-mode: normal"><g transform="scale(5.33333,5.33333)"><path d="M14.47656,3.47852c-0.82766,0.01293 -1.48844,0.69381 -1.47656,1.52148v1h-0.5c-3.58571,0 -6.5,2.91429 -6.5,6.5v2.75391c-0.02645,0.16103 -0.02645,0.3253 0,0.48633v11.42969c0.00019,0.0215 0.00084,0.04299 0.00195,0.06445c-0.07935,0.44104 0.04263,0.89447 0.33255,1.23617c0.28992,0.3417 0.71742,0.53591 1.1655,0.52945h14.37891l-2.43945,2.43945c-0.39185,0.37623 -0.54969,0.9349 -0.41265,1.46055c0.13704,0.52565 0.54754,0.93616 1.07319,1.07319c0.52565,0.13704 1.08432,-0.0208 1.46055,-0.41265l5,-5c0.58555,-0.58579 0.58555,-1.5353 0,-2.12109l-5,-5c-0.28248,-0.2909 -0.67069,-0.45506 -1.07617,-0.45508c-0.61065,0.00015 -1.16026,0.37042 -1.38978,0.93629c-0.22952,0.56587 -0.09314,1.21439 0.34486,1.63988l2.43945,2.43945h-12.87891v-9h31.25391c0.48809,0.08154 0.985,-0.08288 1.32813,-0.43945c0.00327,-0.00324 0.00653,-0.0065 0.00977,-0.00977c0.00393,-0.00453 0.00784,-0.00909 0.01172,-0.01367c0.32515,-0.34005 0.47194,-0.81295 0.39648,-1.27734v-2.75977c0,-3.58571 -2.91429,-6.5 -6.5,-6.5h-0.5v-1c0.00582,-0.40562 -0.15288,-0.7963 -0.43991,-1.08296c-0.28703,-0.28666 -0.67792,-0.44486 -1.08353,-0.43852c-0.82766,0.01293 -1.48844,0.69381 -1.47656,1.52148v1h-16v-1c0.00582,-0.40562 -0.15288,-0.7963 -0.43991,-1.08296c-0.28703,-0.28666 -0.67792,-0.44486 -1.08353,-0.43852zM12.5,9h0.5v0.5c-0.00765,0.54095 0.27656,1.04412 0.74381,1.31683c0.46725,0.27271 1.04514,0.27271 1.51238,0c0.46725,-0.27271 0.75146,-0.77588 0.74381,-1.31683v-0.5h16v0.5c-0.00765,0.54095 0.27656,1.04412 0.74381,1.31683c0.46725,0.27271 1.04514,0.27271 1.51238,0c0.46725,-0.27271 0.75146,-0.77588 0.74381,-1.31683v-0.5h0.5c2.01429,0 3.5,1.48571 3.5,3.5v1.5h-30v-1.5c0,-2.01429 1.48571,-3.5 3.5,-3.5zM40.47656,19.99023c-0.82766,0.01293 -1.48844,0.69381 -1.47656,1.52148v13.98828c0,2.01429 -1.48571,3.5 -3.5,3.5h-23c-2.01429,0 -3.5,-1.48571 -3.5,-3.5v-2.75586c0.00765,-0.54095 -0.27656,-1.04412 -0.74381,-1.31683c-0.46725,-0.27271 -1.04514,-0.27271 -1.51238,0c-0.46725,0.27271 -0.75146,0.77588 -0.74381,1.31683v2.75586c0,3.58571 2.91429,6.5 6.5,6.5h23c3.58571,0 6.5,-2.91429 6.5,-6.5v-13.98828c0.00582,-0.40562 -0.15288,-0.7963 -0.43991,-1.08296c-0.28703,-0.28666 -0.67792,-0.44486 -1.08353,-0.43852z"></path></g></g></svg>